<svg width="141" height="40" viewBox="0 0 141 40" fill="none" xmlns="http://www.w3.org/2000/svg">
<g clip-path="url(#clip0_4107_33052)">
<path d="M26.181 1H5.81904C2.60527 1 0 3.60527 0 6.81904V27.181C0 30.3947 2.60527 33 5.81904 33H26.181C29.3947 33 32 30.3947 32 27.181V6.81904C32 3.60527 29.3947 1 26.181 1Z" fill="#2678FD"/>
<path fill-rule="evenodd" clip-rule="evenodd" d="M13.2762 16.3706L15.9999 12.5306L11.4447 6.10645L5.10645 15.045V27.8933L10.5525 20.2119L13.2762 16.3706Z" fill="white"/>
<path fill-rule="evenodd" clip-rule="evenodd" d="M16 12.5306L21.446 20.2119L26.8934 27.8933V15.045L20.5551 6.10645L16 12.5306Z" fill="white"/>
<path fill-rule="evenodd" clip-rule="evenodd" d="M26.8933 27.8938L15.9999 20.1279L5.10645 27.8938H26.8933Z" fill="white"/>
</g>
<path d="M43.2325 26V8.18H54.6175V10.6179H45.8189V15.6174H53.1325V18.0552H45.8189V23.5621H54.6175V26H43.2325ZM56.1044 26L61.1039 19.2432L56.2158 12.635H59.2848L62.6137 17.2261L65.9054 12.635H68.9744L64.0863 19.2432L69.0982 26H66.0168L62.6137 21.2604L59.1858 26H56.1044ZM77.3504 26.3713C76.0716 26.3713 74.9991 26.0619 74.1329 25.4431C73.2666 24.8161 72.6108 23.9705 72.1653 22.9062C71.7198 21.842 71.497 20.6416 71.497 19.3051C71.497 17.9686 71.7156 16.7682 72.1529 15.704C72.5984 14.6397 73.2501 13.8024 74.1081 13.1919C74.9744 12.5731 76.0386 12.2637 77.3009 12.2637C78.5549 12.2637 79.6356 12.5731 80.5431 13.1919C81.4589 13.8024 82.1643 14.6397 82.6593 15.704C83.1543 16.76 83.4018 17.9604 83.4018 19.3051C83.4018 20.6416 83.1543 21.8461 82.6593 22.9186C82.1725 23.9829 81.4754 24.8244 80.5679 25.4431C79.6686 26.0619 78.5961 26.3713 77.3504 26.3713ZM71.0639 31.94V12.635H73.3656V22.2504H73.6626V31.94H71.0639ZM76.9915 24.0324C77.8165 24.0324 78.4971 23.822 79.0334 23.4012C79.5779 22.9805 79.9821 22.4154 80.2461 21.7059C80.5184 20.9881 80.6545 20.1879 80.6545 19.3051C80.6545 18.4306 80.5184 17.6386 80.2461 16.9291C79.9821 16.2196 79.5738 15.6545 79.021 15.2337C78.4683 14.813 77.7629 14.6026 76.9049 14.6026C76.0964 14.6026 75.4281 14.8006 74.9001 15.1966C74.3804 15.5926 73.9926 16.1454 73.7369 16.8549C73.4894 17.5644 73.3656 18.3811 73.3656 19.3051C73.3656 20.2291 73.4894 21.0459 73.7369 21.7554C73.9844 22.4649 74.3763 23.0217 74.9125 23.426C75.4488 23.8302 76.1418 24.0324 76.9915 24.0324ZM86.3816 26V7.80875H88.968V26H86.3816ZM98.488 26.3713C97.1515 26.3713 95.9924 26.0701 95.0107 25.4679C94.0289 24.8656 93.2699 24.0365 92.7337 22.9805C92.2057 21.9162 91.9417 20.6911 91.9417 19.3051C91.9417 17.9109 92.2139 16.6857 92.7584 15.6297C93.3029 14.5655 94.066 13.7405 95.0478 13.1547C96.0295 12.5607 97.1763 12.2637 98.488 12.2637C99.8245 12.2637 100.984 12.5649 101.965 13.1671C102.947 13.7694 103.706 14.5985 104.242 15.6545C104.779 16.7105 105.047 17.9274 105.047 19.3051C105.047 20.6994 104.775 21.9286 104.23 22.9929C103.694 24.0489 102.935 24.878 101.953 25.4802C100.971 26.0742 99.8163 26.3713 98.488 26.3713ZM98.488 23.9334C99.7668 23.9334 100.72 23.5044 101.347 22.6464C101.982 21.7801 102.3 20.6664 102.3 19.3051C102.3 17.9109 101.978 16.7971 101.334 15.9639C100.699 15.1224 99.7503 14.7016 98.488 14.7016C97.6218 14.7016 96.9082 14.8996 96.3472 15.2956C95.7862 15.6834 95.3695 16.2237 95.0973 16.9167C94.825 17.6015 94.6889 18.3976 94.6889 19.3051C94.6889 20.7076 95.0107 21.8296 95.6542 22.6711C96.2977 23.5126 97.2423 23.9334 98.488 23.9334ZM107.766 26V12.635H110.068V15.8772L109.746 15.4565C109.911 15.0275 110.126 14.6356 110.39 14.2809C110.654 13.9179 110.959 13.6209 111.305 13.3899C111.644 13.1424 112.019 12.9526 112.432 12.8206C112.852 12.6804 113.281 12.5979 113.719 12.5731C114.156 12.5401 114.577 12.5607 114.981 12.635V15.0605C114.544 14.945 114.057 14.912 113.521 14.9615C112.993 15.011 112.506 15.1801 112.06 15.4689C111.64 15.7411 111.305 16.0711 111.058 16.4589C110.819 16.8466 110.645 17.2797 110.538 17.7582C110.431 18.2285 110.377 18.7276 110.377 19.2556V26H107.766ZM123.023 26.3713C121.695 26.3713 120.528 26.0825 119.521 25.505C118.523 24.9192 117.743 24.1066 117.182 23.0671C116.63 22.0194 116.353 20.8066 116.353 19.4289C116.353 17.9686 116.626 16.7022 117.17 15.6297C117.723 14.5572 118.49 13.7281 119.472 13.1424C120.454 12.5566 121.596 12.2637 122.9 12.2637C124.261 12.2637 125.42 12.5814 126.377 13.2166C127.334 13.8436 128.048 14.7387 128.518 15.902C128.996 17.0652 129.186 18.4471 129.087 20.0476H126.501V19.1071C126.484 17.5561 126.187 16.4094 125.61 15.6669C125.041 14.9244 124.17 14.5531 122.999 14.5531C121.703 14.5531 120.73 14.9615 120.078 15.7782C119.426 16.595 119.101 17.7747 119.101 19.3175C119.101 20.786 119.426 21.9245 120.078 22.733C120.73 23.5332 121.67 23.9334 122.9 23.9334C123.708 23.9334 124.405 23.7519 124.991 23.3889C125.585 23.0176 126.047 22.4896 126.377 21.8049L128.914 22.6092C128.394 23.8055 127.606 24.7336 126.55 25.3936C125.494 26.0454 124.319 26.3713 123.023 26.3713ZM118.259 20.0476V18.0305H127.8V20.0476H118.259ZM131.864 26V12.635H134.165V15.8772L133.844 15.4565C134.009 15.0275 134.223 14.6356 134.487 14.2809C134.751 13.9179 135.056 13.6209 135.403 13.3899C135.741 13.1424 136.116 12.9526 136.529 12.8206C136.95 12.6804 137.379 12.5979 137.816 12.5731C138.253 12.5401 138.674 12.5607 139.078 12.635V15.0605C138.641 14.945 138.154 14.912 137.618 14.9615C137.09 15.011 136.603 15.1801 136.158 15.4689C135.737 15.7411 135.403 16.0711 135.155 16.4589C134.916 16.8466 134.743 17.2797 134.636 17.7582C134.528 18.2285 134.475 18.7276 134.475 19.2556V26H131.864Z" fill="#1E1E1E"/>
<path d="M118.387 36.1538C117.92 36.1538 117.528 36.0407 117.211 35.8144C116.894 35.5851 116.654 35.2759 116.491 34.8867C116.328 34.4976 116.247 34.0586 116.247 33.5699C116.247 33.0811 116.327 32.6422 116.487 32.253C116.65 31.8638 116.888 31.5576 117.202 31.3344C117.518 31.1081 117.908 30.995 118.369 30.995C118.828 30.995 119.223 31.1081 119.555 31.3344C119.89 31.5576 120.148 31.8638 120.329 32.253C120.51 32.6392 120.6 33.0781 120.6 33.5699C120.6 34.0586 120.51 34.4991 120.329 34.8913C120.151 35.2804 119.896 35.5882 119.564 35.8144C119.235 36.0407 118.843 36.1538 118.387 36.1538ZM116.088 36.0181V29.5016H117.039V32.5019H116.93V36.0181H116.088ZM118.256 35.2985C118.558 35.2985 118.807 35.2216 119.003 35.0677C119.202 34.9139 119.35 34.7072 119.446 34.4478C119.546 34.1853 119.596 33.8927 119.596 33.5699C119.596 33.2501 119.546 32.9605 119.446 32.701C119.35 32.4416 119.2 32.2349 118.998 32.081C118.796 31.9272 118.538 31.8502 118.224 31.8502C117.929 31.8502 117.684 31.9227 117.491 32.0675C117.301 32.2123 117.159 32.4144 117.066 32.6739C116.975 32.9333 116.93 33.232 116.93 33.5699C116.93 33.9078 116.975 34.2064 117.066 34.4659C117.156 34.7253 117.3 34.929 117.496 35.0768C117.692 35.2246 117.945 35.2985 118.256 35.2985ZM123.767 36.1538C123.281 36.1538 122.854 36.0482 122.486 35.8371C122.121 35.6229 121.836 35.3257 121.631 34.9456C121.429 34.5624 121.328 34.1189 121.328 33.6151C121.328 33.0811 121.427 32.618 121.627 32.2258C121.829 31.8337 122.109 31.5305 122.468 31.3163C122.827 31.1021 123.245 30.995 123.722 30.995C124.22 30.995 124.643 31.1111 124.993 31.3434C125.343 31.5727 125.604 31.9 125.776 32.3254C125.951 32.7508 126.021 33.2561 125.984 33.8414H125.039V33.4975C125.033 32.9303 124.924 32.5109 124.713 32.2394C124.505 31.9679 124.186 31.8321 123.758 31.8321C123.284 31.8321 122.928 31.9815 122.69 32.2802C122.452 32.5788 122.333 33.0102 122.333 33.5744C122.333 34.1114 122.452 34.5277 122.69 34.8234C122.928 35.116 123.272 35.2623 123.722 35.2623C124.017 35.2623 124.272 35.196 124.487 35.0632C124.704 34.9275 124.873 34.7344 124.993 34.484L125.921 34.7781C125.731 35.2156 125.443 35.555 125.057 35.7963C124.671 36.0347 124.241 36.1538 123.767 36.1538ZM122.025 33.8414V33.1038H125.514V33.8414H122.025ZM129.796 36.0181C129.489 36.0784 129.187 36.104 128.891 36.095C128.596 36.0859 128.332 36.0286 128.099 35.923C127.867 35.8174 127.692 35.6515 127.574 35.4252C127.469 35.2231 127.412 35.018 127.402 34.8098C127.396 34.5986 127.393 34.3603 127.393 34.0948V29.7731H128.344V34.0496C128.344 34.2456 128.345 34.4161 128.348 34.5609C128.354 34.7057 128.386 34.8279 128.443 34.9275C128.552 35.1145 128.724 35.2216 128.959 35.2488C129.198 35.2729 129.477 35.2623 129.796 35.2171V36.0181ZM126.457 31.891V31.1307H129.796V31.891H126.457ZM132.207 36.1538C131.845 36.1538 131.542 36.0875 131.297 35.9547C131.053 35.819 130.868 35.641 130.741 35.4207C130.617 35.1975 130.555 34.9531 130.555 34.6876C130.555 34.4402 130.599 34.223 130.687 34.036C130.774 33.8489 130.904 33.6905 131.076 33.5608C131.248 33.4281 131.459 33.321 131.709 33.2395C131.926 33.1762 132.172 33.1204 132.447 33.0721C132.721 33.0238 133.01 32.9786 133.311 32.9363C133.616 32.8941 133.918 32.8519 134.216 32.8096L133.872 32.9997C133.878 32.6165 133.797 32.3329 133.628 32.1489C133.462 31.9619 133.175 31.8683 132.768 31.8683C132.512 31.8683 132.276 31.9287 132.062 32.0494C131.848 32.167 131.699 32.3631 131.614 32.6377L130.732 32.3661C130.852 31.9468 131.082 31.6134 131.42 31.366C131.761 31.1187 132.213 30.995 132.777 30.995C133.215 30.995 133.595 31.0704 133.918 31.2212C134.243 31.3691 134.482 31.6044 134.633 31.9272C134.711 32.0871 134.759 32.256 134.777 32.434C134.796 32.612 134.805 32.8036 134.805 33.0087V36.0181H133.967V34.9003L134.13 35.0451C133.928 35.4192 133.67 35.6983 133.356 35.8823C133.046 36.0633 132.663 36.1538 132.207 36.1538ZM132.374 35.38C132.643 35.38 132.874 35.3332 133.067 35.2397C133.26 35.1432 133.415 35.021 133.533 34.8732C133.651 34.7253 133.728 34.5715 133.764 34.4116C133.815 34.2668 133.844 34.1039 133.85 33.9228C133.859 33.7418 133.863 33.597 133.863 33.4884L134.171 33.6015C133.872 33.6468 133.601 33.6875 133.356 33.7237C133.112 33.7599 132.89 33.7961 132.691 33.8323C132.495 33.8655 132.32 33.9063 132.166 33.9545C132.037 33.9998 131.92 34.0541 131.818 34.1174C131.718 34.1808 131.638 34.2577 131.578 34.3482C131.521 34.4387 131.492 34.5488 131.492 34.6786C131.492 34.8053 131.524 34.9229 131.587 35.0315C131.65 35.1371 131.747 35.2216 131.877 35.285C132.006 35.3483 132.172 35.38 132.374 35.38Z" fill="#2678FD"/>
<defs>
<clipPath id="clip0_4107_33052">
<rect width="32" height="32" fill="white" transform="translate(0 1)"/>
</clipPath>
</defs>
</svg>
